<?xml version="1.0" standalone="no"?>
<!DOCTYPE svg PUBLIC "-//W3C//DTD SVG 1.1//EN" "http://www.w3.org/Graphics/SVG/1.1/DTD/svg11.dtd" >
<svg xmlns="http://www.w3.org/2000/svg">
<metadata>Generated by IcoMoon</metadata>
<defs>
<font id="lms" horiz-adv-x="1024">
<font-face units-per-em="1024" ascent="960" descent="-64" />
<missing-glyph horiz-adv-x="1024" />
<glyph unicode="&#x20;" horiz-adv-x="512" d="" />
<glyph unicode="&#xe900;" glyph-name="activities" horiz-adv-x="1021" d="M815.975 579.518l-523.538-521.989c-16.486-16.436-38.149-24.675-59.813-24.675s-43.327 8.239-59.81 24.675l-75.271 75.050c-32.98 32.871-32.98 86.399 0 119.27l523.536 522 1.21-1.205c3.367 2.276 7.089 4.144 11.153 5.447l292.288 88.264-113.126-283.475 3.371-3.362zM145.927 203.609c-4.112-4.112-4.736-8.907-4.736-11.394s0.624-7.285 4.736-11.394l75.271-75.050c4.121-4.107 8.932-4.709 11.426-4.709 2.497 0 7.308 0.601 11.429 4.709l58.475 58.302-98.128 97.839-58.473-58.302zM350.912 212.315l380.808 379.68c-3.977 3.861-8.171 7.957-12.759 12.456l-86.232 84.531-379.944-378.828 98.128-97.839zM693.632 724.973l3.073-3.018c22.324-21.889 49.099-48.143 70.262-68.874l42.657 106.932-115.992-35.040zM429.768 630.422l-46.010-45.65-48.272 48.375 46.008 45.646-98.902 99.103-46.010-45.646-48.275 48.375 46.010 45.641-36.365 36.436-101.868-101.078 251.298-251.777-48.518-48.133-299.571 300.154 198.905 197.317 289.914-290.479-48.516-48.131-9.827 9.848zM822.968 33.299l101.891 101.057-53.532 53.642-45.997-45.646-48.295 48.375 46.006 45.653-98.893 99.094-45.997-45.646-48.295 48.377 46.004 45.653-19.383 19.422 48.516 48.12 316.637-317.266-198.885-197.317-313.403 314.013 48.516 48.106 265.11-265.636z" />
<glyph unicode="&#xe901;" glyph-name="assessment" horiz-adv-x="920" d="M602.602-63.477c-174.907 0-317.212 142.237-317.212 317.076 0 8.262 0.333 16.446 0.959 24.549h-89.714c-12.512 0-22.66 10.13-22.66 22.649 0 12.517 10.148 22.649 22.66 22.649h96.59c9.368 41.362 26.811 79.697 50.626 113.229h-147.216c-12.512 0-22.66 10.141-22.66 22.649 0 12.506 10.148 22.649 22.66 22.649h186.247c57.053 54.87 134.486 88.712 219.719 88.712 174.92 0 317.225-142.248 317.225-317.085 0-174.839-142.305-317.076-317.225-317.076zM602.602 502.739c-137.424 0-249.235-111.771-249.235-249.14 0-137.372 111.812-249.131 249.235-249.131 137.435 0 249.249 111.76 249.249 249.131 0 137.369-111.814 249.14-249.249 249.14zM506.478 105.080l-91.963 116.115 53.285 42.158 51.557-65.070 234.2 169.663 39.875-55.028-286.954-207.837zM513.869 685.805c12.524 0 22.66-10.141 22.66-22.649s-10.136-22.647-22.66-22.647h-317.234c-12.512 0-22.66 10.139-22.66 22.647s10.148 22.649 22.66 22.649h317.234zM751.789 565.011c-18.765 0-33.989 15.206-33.989 33.973v218.939h-195.434c-18.763 0-33.987 15.206-33.987 33.973 0 10.021 4.423 18.935 11.329 25.154v32.881c0 2.344-1.904 4.246-4.249 4.246h-204.881c-2.347 0-4.249-1.902-4.249-4.246v-32.878c6.906-6.217 11.329-15.133 11.329-25.156 0-18.768-15.213-33.973-33.989-33.973h-195.431v-785.146h217.162c18.774 0 33.987-15.217 33.987-33.973 0-18.754-15.213-33.971-33.987-33.971h-251.151c-18.777 0-33.989 15.217-33.989 33.971v853.093c0 18.765 15.213 33.971 33.989 33.971h206.762v24.064c0 27.315 22.236 49.544 49.567 49.544h204.881c27.326 0 49.567-22.229 49.567-49.544v-24.064h206.762c18.763 0 33.987-15.206 33.987-33.971v-252.913c0-18.768-15.224-33.973-33.987-33.973z" />
<glyph unicode="&#xe902;" glyph-name="asset" horiz-adv-x="1108" d="M1070.299-63.71h-464.731c-20.895 0-37.851 16.943-37.851 37.828v336.229c0 20.885 16.956 37.828 37.851 37.828h101.148c-0.061 0.701-0.212 1.375-0.212 2.092v46.25c0 13.941 11.286 25.217 25.235 25.217h191.347c13.946 0 25.235-11.276 25.235-25.217v-48.342h121.979c20.895 0 37.851-16.943 37.851-37.828v-336.229c0-20.884-16.956-37.828-37.851-37.828zM897.85 371.299h-140.878v-21.031c0-0.717-0.154-1.39-0.212-2.092h141.090v23.123zM1032.448 272.52h-389.030v-90.353h52.563v25.217c0 13.941 11.286 25.217 25.235 25.217 13.946 0 25.232-11.276 25.232-25.217v-25.217h178.756v35.708c0 13.938 11.286 25.217 25.235 25.217 13.946 0 25.232-11.279 25.232-25.217v-35.708h56.777v90.353zM1032.448 131.73h-56.777v-27.336c0-13.938-11.286-25.217-25.232-25.217-13.948 0-25.235 11.279-25.235 25.217v27.336h-178.756v-23.125c0-13.938-11.286-25.217-25.232-25.217-13.948 0-25.235 11.279-25.235 25.217v23.125h-52.563v-119.787h389.030v119.787zM886.072 441.794c-4.607-3.593-10.078-5.357-15.548-5.357-6.656 0-13.307 2.634-18.238 7.782-99.258 103.605-101.155 111.193-102.98 118.517-3.351 13.522 4.877 27.2 18.409 30.561 11.778 2.957 23.728-2.952 28.833-13.519 4.474-6.316 21.73-25.57 43.286-48.816-15.076 197.206-180.341 353.095-381.465 353.095-211.026 0-382.709-171.575-382.709-382.467 0-210.894 171.684-382.467 382.709-382.467 20.907 0 37.851-16.943 37.851-37.828s-16.943-37.828-37.851-37.828c-252.769 0-458.411 205.512-458.411 458.123s205.641 458.12 458.411 458.12c243.517 0 443.211-190.767 457.507-430.607l54.743 42.783c10.991 8.619 26.837 6.639 35.436-4.335 8.574-10.971 6.628-26.817-4.337-35.388l-115.646-90.369zM201.83 463.761h-82.012c-13.933 0-25.232 11.291-25.232 25.217 0 13.928 11.299 25.219 25.232 25.219h82.012c13.936 0 25.232-11.291 25.232-25.219 0-13.925-11.296-25.217-25.232-25.217zM424.732 776.878v67.246c0 13.926 11.299 25.217 25.232 25.217 13.936 0 25.235-11.291 25.235-25.217v-67.246c0-13.923-11.299-25.217-25.235-25.217-13.933 0-25.232 11.294-25.232 25.217zM344.814 479.521c0 5.559 0.565 10.976 1.41 16.3-2.95 0.583-5.846 1.648-8.544 3.341l-113.552 71.442c-11.791 7.416-15.339 22.991-7.91 34.775 7.406 11.796 22.979 15.331 34.795 7.905l113.552-71.442c0.275-0.174 0.487-0.406 0.754-0.59 18.982 25.598 49.331 42.294 83.584 42.294 22.282 0 42.905-7.098 59.855-19.060l160.978 160.877c9.856 9.851 25.825 9.851 35.681 0 9.858-9.853 9.858-25.81 0-35.66l-163.617-163.516c7.1-14.054 11.193-29.875 11.193-46.664 0-57.368-46.697-104.034-104.090-104.034-57.39 0-104.090 46.667-104.090 104.034zM477.293 479.521c0 15.639-12.74 28.371-28.389 28.371-15.646 0-28.389-12.732-28.389-28.371 0-15.649 12.742-28.381 28.389-28.381 15.649 0 28.389 12.732 28.389 28.381z" />
<glyph unicode="&#xe903;" glyph-name="reports" horiz-adv-x="871" d="M859.058 175.816l-243.477-229.62c-7.745-7.284-17.992-11.36-28.641-11.36h-546.090c-23.057 0-41.738 18.7-41.738 41.749v942.833c0 23.063 18.681 41.749 41.738 41.749h789.567c23.043 0 41.74-18.686 41.74-41.749v-713.212c0-11.497-4.729-22.479-13.099-30.388zM621.72 66.768l107.268 101.167h-107.268v-101.167zM788.679 877.668h-706.089v-859.335h455.653v191.351c0 23.049 18.697 41.749 41.74 41.749h208.696v626.235zM141.719 341.889c0 23.049 18.683 41.749 41.74 41.749h434.784c23.043 0 41.738-18.7 41.738-41.749s-18.694-41.749-41.738-41.749h-434.784c-23.057 0-41.74 18.7-41.74 41.749zM645.352 721.037l-91.459-127.212-1.802 1.294c18.411-12.907 30.499-34.254 30.499-58.402 0-39.33-31.985-71.32-71.304-71.32-39.322 0-71.304 31.99-71.304 71.32 0 15.762 5.198 30.297 13.888 42.115l-54.392 56.997c-0.469 0.494-0.841 1.039-1.225 1.577-8.095-3.199-16.881-5.015-26.098-5.015-7.231 0-14.207 1.1-20.788 3.11-0.067-0.078-0.108-0.167-0.178-0.242l-56.536-62.834c6.115-10.516 9.675-22.69 9.675-35.709 0-39.33-31.985-71.32-71.304-71.32-39.322 0-71.307 31.99-71.307 71.32s31.985 71.32 71.307 71.32c16.195 0 31.096-5.49 43.082-14.621l50.182 55.769c-15.534 13.091-25.437 32.665-25.437 54.528 0 39.33 31.982 71.32 71.304 71.32 39.319 0 71.304-31.99 71.304-71.32 0-19.997-8.292-38.069-21.591-51.032l52.515-55.039c0.003-0.003 0.006-0.006 0.008-0.008 10.78 6.556 23.382 10.402 36.895 10.402 14.637 0 28.25-4.443 39.583-12.038l-19.583 14.076 97.885 136.151c-45.3-5.121-69.46-7.723-71.798-7.723l-0.542 27.819c4.779 0.286 64.833 7.040 101.575 11.224l15.762 1.808-2.013-121.103-27.825 0.464 1.022 62.32zM233.025 580.206c-23.968 0-43.479-19.516-43.479-43.49s19.511-43.49 43.479-43.49 43.479 19.516 43.479 43.49-19.511 43.49-43.479 43.49zM372.156 747.201c-23.968 0-43.479-19.516-43.479-43.487 0-23.973 19.511-43.49 43.479-43.49s43.479 19.516 43.479 43.49c0 23.971-19.511 43.487-43.479 43.487zM511.286 580.206c-23.968 0-43.479-19.516-43.479-43.49s19.511-43.49 43.479-43.49 43.479 19.516 43.479 43.49-19.511 43.49-43.479 43.49zM190.415 223.599h163.479c23.057 0 41.738-18.7 41.738-41.749s-18.681-41.749-41.738-41.749h-163.479c-23.057 0-41.74 18.7-41.74 41.749s18.683 41.749 41.74 41.749z" />
<glyph unicode="&#xe904;" glyph-name="class-report" horiz-adv-x="1019" d="M922.265 392.659c-18.995 0-34.408 15.418-34.408 34.422v84.147h-171.622v-55.308c0-12.672-10.263-22.948-22.941-22.948-12.681 0-22.939 10.276-22.939 22.948v55.308h-391.985v-69.471c0-12.683-10.27-22.948-22.939-22.948-12.667 0-22.941 10.265-22.941 22.948v69.471h-163.589v-358.847h442.756c18.997 0 34.411-15.418 34.411-34.422s-15.413-34.422-34.411-34.422h-477.167c-19.006 0-34.408 15.418-34.408 34.422v642.947c0 19.016 15.402 34.422 34.408 34.422h206.615v130.346c0 19.013 15.402 34.422 34.408 34.422h365.561c18.997 0 34.411-15.409 34.411-34.422v-120.543c0-3.43-0.656-6.677-1.59-9.804h248.37c18.997 0 34.411-15.407 34.411-34.422v-333.825c0-19.004-15.414-34.422-34.411-34.422zM606.664 805.132v86.121h-296.739v-95.924h298.329c-0.934 3.127-1.59 6.374-1.59 9.804zM887.857 726.484h-818.956v-169.36h609.606c4.001 3.403 9.118 5.534 14.787 5.534s10.786-2.131 14.787-5.534h179.776v169.36zM793.722 386.182c124.088 0 225.050-101.002 225.050-225.128 0-124.152-100.963-225.151-225.050-225.151-124.108 0-225.073 100.999-225.073 225.151 0 124.127 100.965 225.128 225.073 225.128zM811.802 339.378v-46.926c6.181-0.849 12.176-2.248 18.057-3.919l41.677 33.798c-18.408 8.925-38.497 14.909-59.733 17.047zM892.873 310.097l-38.492-31.217c21.308-10.995 39.282-27.564 51.953-47.775l37.531 27.388c-13.342 20.443-30.694 38.047-50.992 51.604zM955.249 238.371l-38.4-28.023c6.149-15.244 9.606-31.855 9.606-49.294 0-9.34-1.062-18.421-2.905-27.216l49.189 32.649c-0.778 25.685-6.952 50.012-17.49 71.884zM925.767 40.337c24.18 26.518 40.617 60.231 45.46 97.595l-61.215-40.635-0.032 0.050c-4.254-7.72-9.29-14.941-14.932-21.633l30.719-35.377zM811.802-17.293c28.932 2.914 55.75 12.871 78.958 27.941l-30.88 35.56c-14.523-8.413-30.751-14.197-48.078-16.574v-46.926zM903.516 161.054c0 60.55-49.262 109.828-109.794 109.828-60.555 0-109.814-49.278-109.814-109.828 0-60.575 49.26-109.853 109.814-109.853 60.532 0 109.794 49.278 109.794 109.853zM765.922-16.035v47.268c-52.536 11.247-93.642 53.644-102.952 106.873h-46.8c10.143-78.88 71.563-141.908 149.752-154.141zM662.97 184c9.315 53.213 50.418 95.605 102.952 106.85v47.27c-78.189-12.233-139.606-75.259-149.752-154.121h46.8z" />
<glyph unicode="&#xe905;" glyph-name="school-plan" horiz-adv-x="1128" d="M1117.553 122.398c-4.648-9.274-14.109-15.132-24.42-15.132h-19.506v-135.665c0-15.215-12.24-27.526-27.362-27.526h-476.834c-15.108 0-27.362 12.312-27.362 27.526v135.665h-19.479c-10.328 0-19.775 5.858-24.423 15.132-4.662 9.274-3.726 20.376 2.406 28.736l78.905 107.521c5.158 7.043 13.332 11.181 22.019 11.181h83.633v1.693h1.259l-19.481 23.251 122.887 104.209v158.291l203.959-123.353-149.233-27.296v-8.712l105.628-102.146-19.561-20.453v-5.485h83.608c8.684 0 16.861-4.138 22.019-11.181l78.93-107.521c6.122-8.36 7.057-19.462 2.406-28.736zM763.422-0.875h75.676v55.722h-75.676v-55.722zM685.131 214.787h-69.818l-38.507-52.471h108.325v52.471zM815.958 349.189l-91.56-77.66h15.456v-109.214h136.010v119.133h10.13l-70.037 67.74zM596.792 107.266v-108.141h139.267v83.249h130.399v-83.249h152.443v108.141h-422.11zM1000.381 214.787h-69.793v-52.471h108.325l-38.532 52.471zM949.255 43.271h24.116v-24.261h-24.116v24.261zM949.255 82.966h24.116v-24.258h-24.116v24.258zM896.639 43.271h24.119v-24.261h-24.119v24.261zM896.639 82.966h24.119v-24.258h-24.119v24.258zM673.028 43.271h24.113v-24.261h-24.113v24.261zM673.028 82.966h24.113v-24.258h-24.113v24.258zM620.411 43.271h24.116v-24.261h-24.116v24.261zM620.411 82.966h24.116v-24.258h-24.116v24.258zM805.287 244.821c-14.639 0-26.506 11.936-26.506 26.665 0 14.726 11.867 26.665 26.506 26.665 14.641 0 26.508-11.939 26.508-26.665 0-14.729-11.867-26.665-26.508-26.665zM160.258 795.764l228.007 6.047v-379.174l-108.618 109.296-119.388-102.522v366.352zM214.981 548.786l67.603 58.063 50.956-51.288v189.722l-118.56-3.142v-193.354zM773.631 601.929l0.881 84.448h-356.6v82.574h289.862c-12.375 20.346-18.996 41.495-19.649 63.331-0.513 17.336 2.919 33.009 8.119 46.772h-563.348c-30.182 0-54.724-24.689-54.724-55.050 0-30.364 24.541-55.053 54.724-55.053v-82.574c-17.078 0-33.371 3.304-48.459 9.082v-674.183l388.668-4.33-0.908-82.577-469.845 5.244v843.224c-4.061 13.003-6.264 26.829-6.264 41.166 0 75.881 61.377 137.627 136.809 137.627h672.638v-82.577h-47.971c-7.738-11.327-15.377-27.258-14.715-45.507 0.763-21.383 12.762-43.035 35.489-64.596h27.197v-1.029l51.919-0.543-1.737-166.308-82.085 0.859z" />
<glyph unicode="&#xe906;" glyph-name="class-work" horiz-adv-x="739" d="M702.911 222.995h-130.629l82.983-239.436c6.608-19.054-3.495-39.839-22.529-46.42-3.968-1.377-7.982-2.018-11.953-2.018-15.112 0-29.253 9.454-34.479 24.54l-89.234 257.468c-0.675 1.943-1.061 3.907-1.394 5.867h-252.701c-0.333-1.96-0.719-3.924-1.392-5.867l-89.219-257.468c-5.228-15.086-19.369-24.54-34.494-24.54-3.956 0-7.997 0.641-11.953 2.018-19.046 6.581-29.134 27.366-22.541 46.42l82.973 239.436h-130.607c-20.163 0-36.5 16.344-36.5 36.49 0 20.144 16.336 36.49 36.5 36.49h667.168c20.151 0 36.502-16.346 36.502-36.49 0-20.146-16.351-36.49-36.502-36.49zM681.050 337.072c-6.989-6.984-16.327-10.69-25.81-10.69-2.778 0-5.559 0.308-8.317 0.95-39.258 2.567-363.251 0.806-563.225-0.95-9.765-0.095-19.105 3.73-26.021 10.571-6.914 6.865-10.799 16.178-10.799 25.919v496.654c0 20.156 16.336 36.49 36.5 36.49h202.424c-8.356 6.686-13.811 16.844-13.811 28.377 0 20.156 16.339 36.488 36.502 36.488h121.658c20.151 0 36.5-16.331 36.5-36.488 0-11.533-5.459-21.691-13.813-28.377h202.402c20.151 0 36.502-16.334 36.502-36.49v-495.301c0.333-9.954-3.397-19.86-10.693-27.153zM618.74 823.038h-498.861v-423.368c51.532 0.403 149.96 1.137 248.509 1.566 130.321 0.568 205.817 0.95 250.352-0.784v422.586z" />
<glyph unicode="&#xe907;" glyph-name="concept-maps" horiz-adv-x="805" d="M788.737 479.544c-9.519-11.144-21.767-18.537-34.914-22.225-3.108-52.596-14.383-104.105-33.801-153.304-3.437-8.777-11.838-14.111-20.714-14.111-2.72 0-5.505 0.499-8.183 1.567-11.444 4.506-17.056 17.464-12.533 28.917 17.557 44.548 27.826 91.16 30.704 138.756-7.538 2.836-14.726 6.974-21.195 12.504-14.492 12.404-23.303 29.705-24.783 48.727-1.5 19.020 4.503 37.498 16.905 52.001 25.589 29.943 70.738 33.449 100.632 7.894 14.492-12.402 23.305-29.703 24.785-48.725 1.5-19.020-4.503-37.501-16.905-52.001zM751.92 546.364c-5.047 4.312-11.251 6.424-17.406 6.424-7.595 0-15.122-3.19-20.431-9.399-4.657-5.443-6.899-12.377-6.355-19.532 0.565-7.144 3.873-13.653 9.314-18.303 11.268-9.614 28.198-8.265 37.837 2.972 4.657 5.445 6.899 12.379 6.355 19.534-0.568 7.141-3.873 13.653-9.314 18.303zM707.923 683.217c-3.35-1.783-6.941-2.622-10.465-2.622-7.963 0-15.665 4.281-19.692 11.812-22.492 42.233-51.331 80.27-85.715 113.359-7.041-3.905-14.812-6.743-23.209-8.087-3.807-0.612-7.593-0.906-11.313-0.906-34.444 0-64.839 25.064-70.456 60.147-6.222 38.903 20.324 75.62 59.185 81.849 38.992 6.28 75.547-20.362 81.769-59.254 2.32-14.494 0.078-28.676-5.641-41.098 38.015-36.468 69.884-78.423 94.72-125.035 5.788-10.868 1.676-24.369-9.183-30.163zM584.031 872.457c-2.351 14.612-15.95 24.705-30.722 22.279-14.601-2.342-24.567-16.148-22.239-30.76 2.328-14.601 15.95-24.554 30.724-22.265 14.598 2.337 24.565 16.135 22.236 30.747zM432.069 894.406c-2.524 0-5.093 0.439-7.595 1.351-12.902 4.684-26.217 8.417-39.589 11.095-12.063 2.418-19.877 14.167-17.461 26.252 2.415 12.074 14.067 19.859 26.23 17.477 15.536-3.117 31.016-7.46 46.009-12.902 11.576-4.194 17.537-16.985 13.361-28.561-3.288-9.069-11.838-14.712-20.954-14.712zM337.592 914.269c-0.683 0-1.38 0.031-2.075 0.098-13.699 1.273-27.579 1.914-41.267 1.914l-8.584-0.087c-12.62 0.358-22.443 9.583-22.684 21.896-0.218 12.317 9.574 22.472 21.878 22.704l9.39 0.087c15.057 0 30.319-0.708 45.377-2.113 12.261-1.133 21.27-11.999 20.126-24.26-1.064-11.565-10.779-20.24-22.161-20.24zM235.817 912.437c-13.98-1.861-28.035-4.419-41.777-7.611-1.696-0.39-3.384-0.577-5.058-0.577-10.129 0-19.289 6.959-21.682 17.259-2.787 11.999 4.677 23.977 16.667 26.764 15.122 3.517 30.602 6.338 45.995 8.372 12.121 1.525 23.403-6.968 25.012-19.173 1.623-12.208-6.952-23.412-19.158-25.035zM589.188 606.903c32.376-75.478 33.465-159.054 3.025-235.337-29.202-73.194-84.073-131.168-155.054-164.379v-155.586h-22.281c-19.407 0-34.193-14.786-34.193-32.968v-18.946c0-35.604-28.939-64.568-64.514-64.568h-18.637c-35.575 0-64.525 28.964-64.525 64.568v18.946c0 18.183-14.786 32.968-32.953 32.968h-22.281l-1.229 22.299v133.285c-68.336 31.998-122.128 87.387-152.040 157.084-66.832 155.822 5.452 337.003 161.133 403.901 155.619 66.885 336.727-5.432 403.547-161.267zM277.572 18.632v-18.946c0-11.019 8.953-19.97 19.964-19.97h18.637c10.997 0 19.952 8.951 19.952 19.97v18.946c0 35.473 23.922 65.458 56.476 74.67v76.264h-171.491v-76.479c32.877-9.407 56.462-39.241 56.462-74.454zM85.933 390.66c24.436-56.921 69.205-101.739 126.070-126.15 16.961-7.297 24.816-26.96 17.537-43.945-0.991-2.313-2.215-4.448-3.631-6.402h161.937c-1.436 1.948-2.682 4.076-3.68 6.402-7.277 16.985 0.565 36.648 17.528 43.945 59.009 25.326 104.615 72.168 128.441 131.858 23.804 59.688 22.978 125.082-2.351 184.142-52.306 121.916-193.943 178.557-315.77 126.184-121.816-52.34-178.376-194.115-126.081-316.033zM319.316 680.833c0-12.312-9.977-22.299-22.281-22.299-90.602 0-164.31-73.768-164.31-164.445 0-12.315-9.975-22.299-22.281-22.299-12.304 0-22.281 9.984-22.281 22.299 0 115.262 93.703 209.045 208.872 209.045 12.304 0 22.281-9.984 22.281-22.301zM468.884 38.6c40.82 24.923 77.072 55.917 108.072 92.16-4.305 6.81-7.522 14.465-9.352 22.777-4.092 18.641-0.697 37.761 9.572 53.853 10.271 16.070 26.197 27.176 44.824 31.27 18.559 4.072 37.705 0.699 53.764-9.559 16.059-10.278 27.176-26.219 31.268-44.86 8.464-38.458-15.93-76.653-54.377-85.126-5.133-1.131-10.269-1.676-15.318-1.676-9.045 0-17.822 1.788-25.981 4.998-34.177-40.114-74.187-74.4-119.278-101.904-3.613-2.222-7.618-3.266-11.576-3.266-7.506 0-14.839 3.789-19.040 10.692-6.418 10.518-3.090 24.238 7.42 30.64zM611.12 163.119c3.199-14.438 17.45-23.605 31.984-20.449 14.427 3.181 23.588 17.533 20.409 31.991-1.543 7.010-5.721 13-11.747 16.854-4.374 2.787-9.334 4.225-14.383 4.225-1.937 0-3.896-0.196-5.83-0.63h-0.022c-6.985-1.549-12.949-5.708-16.82-11.74-3.851-6.053-5.136-13.239-3.591-20.251z" />
<glyph unicode="&#xe908;" glyph-name="interaction" horiz-adv-x="1126" d="M1035.636 557.305h-224.078l-114.204-97.456c-6.531-5.551-14.722-8.459-23-8.459-4.533 0-9.087 0.858-13.412 2.633-12.282 5.012-20.7 16.452-21.803 29.618l-6.167 73.664h-31.764c-48.821 0-88.531 39.537-88.531 88.136v225.072c0 48.602 39.711 88.136 88.531 88.136h434.428c48.809 0 88.531-39.534 88.531-88.136v-225.072c0-48.6-39.722-88.136-88.531-88.136zM1053.508 870.513c0 9.811-8.029 17.792-17.872 17.792h-434.428c-9.844 0-17.872-7.982-17.872-17.792v-225.072c0-9.811 8.029-17.792 17.872-17.792h64.267c18.378 0 33.673-14.012 35.216-32.249l3.127-37.385 71.672 61.175c6.418 5.461 14.562 8.459 23.002 8.459h237.145c9.844 0 17.872 7.982 17.872 17.792v225.072zM435.23 231.163c3.992-6.712 14.193-14.221 82.576-16.375 31.327-0.962 58.088-12.526 77.355-33.41 35.19-38.171 33.26-93.447 32.935-99.63l0.047-144.398h-626.789l3.094 38.011c2.692 33.020 3.508 66.521 2.45 99.586-0.024 116.739 137.641 149.025 196.433 162.809l5.774 1.352c8.555 2.027 12.594 21.761 12.902 41.89-45.583 34.322-75.582 92.145-75.582 157.568 0 105.061 77.319 190.529 172.349 190.529 95.032 0 172.351-85.468 172.351-190.529 0-60.547-25.718-114.552-65.677-149.478 0.731-19.666 3.905-39.095 9.782-57.924zM219.524 169.29c-73.744-17.31-141.988-40.576-141.988-93.219 0.736-22.327 0.621-45.294-0.334-68.376h480.282v75.954c0.4 10.488-1.507 36.386-14.515 50.309-4.004 4.284-11.191 10.029-27.384 10.535-79.769 2.494-121.77 11.701-144.678 57.315l-1.989 4.852c-4.965 15.19-8.652 30.685-11.059 46.38-12.568-3.235-25.64-5.001-39.085-5.001-9.745 0-19.288 0.945-28.597 2.671-6.115-35.977-23.964-70.356-64.706-80.023l-5.946-1.396zM318.774 558.751c-56.066 0-101.69-53.915-101.69-120.185 0-66.279 45.623-120.183 101.69-120.183s101.69 53.904 101.69 120.183c0 66.27-45.623 120.185-101.69 120.185z" />
<glyph unicode="&#xe909;" glyph-name="experiment" horiz-adv-x="1031" d="M991.106 116.038c-42.266-77.33-112.165-133.609-196.839-158.469-30.862-9.055-62.36-13.546-93.673-13.546-54.561 0-108.561 13.618-157.8 40.452l34.679 63.406c60.476-32.949 130.236-40.428 196.367-21.003 66.134 19.403 120.743 63.36 153.752 123.779 25.229 46.174 34.746 96.74 30.433 145.577-10.37 11.018-22.053 8.040-67.729-14.977-19.885-10.021-42.432-21.403-68.748-30.578-15.054-5.267-29.542-7.57-43.468-7.57-52.347 0-97.229 32.385-137.823 61.688-15.572 11.242-30.32 21.897-44.76 30.291-23.444 5.221-47.636-0.046-66.876-14.652l-29.166 38.384c31.864 24.128 72.41 32.289 111.12 22.176l5.746-2.303c17.74-9.973 35.269-22.627 52.207-34.857 45.943-33.158 89.245-64.416 137.093-47.716 23.323 8.158 44.362 18.767 62.927 28.125 26.434 13.319 53.376 26.773 78.67 26.417-19.246 61.638-61.457 116.199-122.584 149.49-13.146 7.163-27.070 13.23-41.324 18.018l-24.643 8.276v320.97h72.374v-270.158c9.638-4.115 19.085-8.691 28.248-13.676 159.946-87.1 219.081-287.877 131.817-447.543zM530.802 959.761h340.411v-72.249h-340.411v72.249zM595.097 847.415h72.374v-320.946l-24.619-8.288c-37.674-12.678-72.446-34.257-100.552-62.384l-60.512-57.961-50.089 52.152 59.937 57.385c29.272 29.315 64.775 53.27 103.463 69.861v270.182zM96.542 815.264h316.298v-72.249h-316.298v72.249zM119.995 714.924h72.374v-266.794l-65.16-194.054c26.101 1.891 52.426-3.684 75.964-16.871 39.078-18.41 142.861-12.835 194.509 9.616l-80.672 200.203v263.879h72.376v-249.885l144.76-359.255v-6.985c0-87.418-71.254-158.539-158.826-158.539h-217.124c-87.582 0-158.826 71.121-158.826 158.539v5.903l120.625 359.231v255.012zM158.196 8.487h217.124c45.504 0 82.905 35.279 86.204 79.894l-46.126 114.469c-38.329-16.743-89.375-24.427-135.833-24.441-40.054 0-76.617 5.667-98.528 16.039-22.885 12.753-48.142 15.078-71.357 7.423l-37.77-112.481c2.805-45.085 40.428-80.903 86.286-80.903z" />
<glyph unicode="&#xe90a;" glyph-name="p-grade" horiz-adv-x="820" d="M747.536-63.937h-674.725c-40.505 0-73.449 32.886-73.449 73.336v705.552l250.994 244.987h497.18c40.492 0 73.436-32.889 73.436-73.322v-877.217c0-40.449-32.944-73.335-73.436-73.335zM226.877 863.367l-133.759-130.56h133.759v130.56zM768.219 886.615c0 11.39-9.272 20.662-20.683 20.662h-467.907v-227.133h-227.515v-670.746c0-11.392 9.285-20.675 20.696-20.675h674.725c11.411 0 20.683 9.283 20.683 20.675v877.217zM589.415 544.589h-24.106v89.126h-85.131v22.561h85.131v88.38h24.106v-88.38h85.131v-22.561h-85.131v-89.126zM493.547 167.069l-43.249 127.078h-143.493l-42.037-127.078h-54.038l137.507 404.030h63.039l138.11-404.030h-55.839zM399.866 451.207c-9.001 26.384-15.003 50.362-21.004 73.736h-1.211c-5.999-23.977-12.606-48.56-20.412-73.13l-39.63-116.884h121.899l-39.641 116.279z" />
<glyph unicode="&#xe90b;" glyph-name="home-plan" horiz-adv-x="1114" d="M1057.749 158.445l-20.587 19.062v-241.495h-505.642v249.008l-22.231-18.538-52.52 63.548 339.364 282.955 181.309-167.878v44.752h82.234v-120.897l53.807-49.82-55.733-60.697zM748.751 18.587h71.124v101.553h-71.124v-101.553zM954.928 253.645l-161.633 149.653-179.539-149.708v-235.003h80.173v156.603h180.771v-156.603h80.228v235.058zM165.028 795.764l228.418 6.047v-379.174l-108.816 109.296-119.602-102.522v366.352zM219.85 548.786l67.724 58.063 51.050-51.288v189.722l-118.774-3.142v-193.354zM779.51 686.377h-356.364v82.574h290.386c-12.397 20.346-19.029 41.495-19.682 63.331-0.516 17.336 2.925 33.009 8.133 46.772h-564.368c-30.235 0-54.822-24.689-54.822-55.050 0-30.364 24.588-55.053 54.822-55.053v-82.574c-17.108 0-33.428 3.304-48.544 9.082v-674.183l389.37-4.33-0.911-82.577-470.693 5.244v843.224c-4.069 13.003-6.278 26.829-6.278 41.166 0 75.881 61.487 137.627 137.056 137.627h673.857v-82.577h-48.059c-7.749-11.327-15.404-27.258-14.74-45.507 0.763-21.383 12.784-43.035 35.555-64.596h77.517v-222.5h-82.234v139.926z" />
<glyph unicode="&#xe90c;" glyph-name="home" horiz-adv-x="1218" d="M1157.792 352.971l-99.105 91.834v-510.237h-900.916v519.266l-100.822-84.129-55.653 67.372 628.398 524.357 385.169-356.923v167.423h87.136v-248.169l114.849-106.428-59.056-64.365zM530.77 22.133h154.886v240.191h-154.886v-240.191zM971.548 525.548l-344.861 319.555-381.778-318.562v-504.407h198.725v327.76h329.16v-327.76h198.754v503.414z" />
<glyph unicode="&#xe90d;" glyph-name="lab" d="M861.736 514.695l-223.205 59.809-59.799 223.192 163.382 163.393 223.176-59.799 59.799-223.192-163.353-163.404zM922.099 858.102l-164.177 43.988-120.191-120.202 43.991-164.195 164.206-43.999 120.162 120.215-43.991 164.193zM801.911 640.904c-25.909 0-50.268 10.085-68.58 28.413-37.791 37.818-37.791 99.345 0 137.162 37.815 37.815 99.345 37.815 137.162 0 37.789-37.818 37.789-99.345 0-137.162-18.315-18.328-42.674-28.413-68.583-28.413zM851.79 787.777c-27.484 27.511-72.275 27.511-99.757 0-27.484-27.495-27.484-72.262 0-99.759 26.655-26.655 73.099-26.655 99.757 0 27.484 27.497 27.484 72.265 0 99.759zM736.646 379.99c45.971 7.842 92.942 0.536 134.879-21.509 50.55-26.553 87.721-71.188 104.716-125.715 12.788-41.046 12.944-84.493 0.467-125.641l-12.967-42.751-126.621 129.337-69.667-15.293-21.234-66.798 130.807-133.623-41.302-12.862c-21.081-6.562-42.415-9.687-63.441-9.687-91.107 0-175.727 58.764-204.217 150.18-10.138 32.576-12.279 66.331-6.752 99.015l-292.685 292.674c-11.616-1.961-23.356-3.017-35.136-3.017-21.377 0-42.84 3.244-63.829 9.776-54.514 16.971-99.152 54.169-125.692 104.719-26.542 50.553-31.8 108.414-14.815 162.915l12.851 41.275 133.597-130.767 66.825 21.221 15.29 69.665-129.321 126.61 42.737 12.967c41.135 12.49 84.596 12.374 125.665-0.465 54.514-16.971 99.152-54.166 125.694-104.719 22.026-41.954 29.34-88.938 21.501-134.861l292.648-292.648zM618.59 121.383c21.414-68.812 85.113-113.033 153.667-113.033 0.335 0 0.673 0 1.008 0l-87.077 88.959 40.090 126.209 128.149 28.157 78.599-80.309c-0.206 15.396-2.661 30.739-7.309 45.67-12.762 41.043-40.763 74.624-78.808 94.594-23.377 12.294-48.874 18.521-74.55 18.521-16.093 0-32.235-2.428-48.019-7.364-41.046-12.762-74.624-40.76-94.591-78.81-19.991-38.024-23.947-81.574-11.159-122.593zM375.653 782.907c-19.967 38.037-53.559 66.022-94.578 78.81-14.947 4.648-30.3 7.076-45.683 7.285l80.296-78.591-28.131-128.146-126.235-40.101-89.012 87.138c-0.222-26.141 6.005-52.113 18.508-75.915 19.967-38.037 53.559-66.022 94.578-78.81 84.725-26.294 175.043 21.052 201.414 105.74 12.772 41.019 8.808 84.556-11.157 122.59zM332.591 518.892c-2.378-1.248-4.804-2.36-7.214-3.516l253.978-253.967c1.148 2.397 2.296 4.793 3.537 7.158 21.72 41.352 55.673 73.545 97.096 93.277l-254.136 254.136c-19.716-41.428-51.909-75.379-93.261-97.088zM385.493 321.469l59.812-223.205-163.406-163.353-223.189 59.799-59.799 223.178 163.393 163.38 223.189-59.799zM101.898 37.898l164.193-43.988 120.217 120.165-44.004 164.206-164.193 43.988-120.202-120.188 43.988-164.182zM290.683 226.669c18.325-18.312 28.413-42.671 28.413-68.58s-10.088-50.268-28.413-68.58c-18.909-18.909-43.746-28.363-68.58-28.363-24.837 0-49.674 9.454-68.583 28.363-37.815 37.815-37.815 99.345 0 137.16 37.818 37.815 99.345 37.815 137.162 0zM172.223 207.969c-27.497-27.511-27.497-72.249 0-99.759 27.511-27.484 72.249-27.484 99.757 0 13.329 13.329 20.667 31.024 20.667 49.88s-7.338 36.551-20.667 49.88c-27.508 27.484-72.246 27.484-99.757 0z" />
<glyph unicode="&#xe90e;" glyph-name="mind-maps" horiz-adv-x="932" d="M729.946 263.821c-67.375 0-127.078 33.268-163.619 84.183l-48.349-30.39c22.768-37.76 35.895-81.944 35.895-129.14 0-138.474-112.833-251.146-251.534-251.146s-251.534 112.672-251.534 251.146c0 111.813 73.582 206.763 174.928 239.201l-14.617 87.544c-3.115-0.144-6.242-0.237-9.39-0.237-110.957 0-201.229 90.13-201.229 200.916s90.271 200.919 201.229 200.919c110.952 0 201.226-90.133 201.226-200.919 0-90.309-59.995-166.875-142.271-192.101l14.302-85.686c8.992 0.977 18.11 1.513 27.356 1.513 73.318 0 139.391-31.498 185.408-81.635l54.563 34.306c-8.743 22.494-13.59 46.913-13.59 72.456 0 83.1 50.796 154.585 123.013 185.118l-31.35 75.644c-5.311-0.738-10.692-1.251-16.204-1.251-64.726 0-117.391 52.582-117.391 117.209s52.665 117.199 117.391 117.199c64.724 0 117.391-52.571 117.391-117.199 0-41.306-21.567-77.611-53.994-98.493l32.941-79.479c9.611 1.413 19.432 2.168 29.428 2.168 110.955 0 201.229-90.133 201.229-200.916 0-110.801-90.274-200.931-201.229-200.931zM327.492 715.898c0 69.238-56.424 125.574-125.766 125.574-69.344 0-125.768-56.336-125.768-125.574s56.424-125.572 125.768-125.572c69.342 0 125.766 56.333 125.766 125.572zM302.339 364.28c-97.090 0-176.073-78.877-176.073-175.807 0-96.927 78.983-175.801 176.073-175.801s176.073 78.875 176.073 175.801c0 96.929-78.983 175.807-176.073 175.807zM671.263 841.473c0 36.924-30.090 66.97-67.083 66.97s-67.085-30.045-67.085-66.97c0-36.935 30.093-66.98 67.085-66.98s67.083 30.045 67.083 66.98zM729.946 590.327c-69.342 0-125.766-56.338-125.766-125.574 0-69.253 56.424-125.587 125.766-125.587 69.344 0 125.768 56.333 125.768 125.587 0 69.236-56.424 125.574-125.768 125.574z" />
<glyph unicode="&#xe90f;" glyph-name="notes" horiz-adv-x="825" d="M741.212-63.432h-656.971c-46.511 0-84.357 37.792-84.357 84.249v692.579l252 246.036h489.328c46.501 0 84.344-37.792 84.344-84.236v-854.378c0-46.457-37.843-84.249-84.344-84.249zM221.414 822.084l-85.9-83.869h85.9v83.869zM748.511 875.196c0 4.018-3.284 7.302-7.299 7.302h-442.753v-221.22h-221.53v-640.46c0-4.031 3.286-7.312 7.312-7.312h656.971c4.015 0 7.299 3.281 7.299 7.312v854.378zM645.784 228.086h-452.624c-14.182 0-25.682 11.469-25.682 25.646 0 14.175 11.499 25.646 25.682 25.646h452.624c14.195 0 25.682-11.471 25.682-25.646 0-14.177-11.487-25.646-25.682-25.646zM645.784 356.314h-452.624c-14.182 0-25.682 11.469-25.682 25.643s11.499 25.646 25.682 25.646h452.624c14.195 0 25.682-11.471 25.682-25.646s-11.487-25.643-25.682-25.643zM645.784 510.186h-452.624c-14.182 0-25.682 11.481-25.682 25.646 0 14.162 11.499 25.646 25.682 25.646h452.624c14.195 0 25.682-11.484 25.682-25.646 0-14.164-11.487-25.646-25.682-25.646z" />
<glyph unicode="&#xe910;" glyph-name="online-tutor" horiz-adv-x="1011" d="M944.952 54.509c-16.28-23.405-22.245-54.584-15.315-84.103 3.466-14.773-5.693-29.546-20.496-33.004-2.122-0.481-4.217-0.723-6.314-0.723-12.491 0-23.773 8.525-26.756 21.181-10.504 44.69-1.451 91.877 24.851 129.519 32.587 40.696 58.859 160.511 54.749 217.965-4.915 68.392-20.604 102.254-57.946 124.936-39.143 23.765-169.354 44.974-216.236 51.14-13.539 1.768-23.721 13.217-23.908 26.849-0.080 7.134-2.282 175.259 0.027 230.286 1.13 26.877-3.761 34.973-5.91 37.199-3.197 3.348-11.496 5.121-23.935 5.121-10.262-0.135-19.235-7.832-21.011-18.3-0.322-1.93-0.858-3.807-1.556-5.561-7.521-52.456-34.791-399.283-23.158-461.375 2.955-2.656 5.372-6.007 6.985-9.918 5.776-14.025-0.913-30.082-14.963-35.847-54.617-22.358-84.881 21.126-120.060 71.446-4.324 6.193-8.918 12.764-13.833 19.655-31.864 25.604-59.106 36.273-76.634 29.972-10.853-3.835-18.952-13.968-24.606-24.505 49.388-15.683 88.49-56.756 100.19-108.607 15.166-51.502 67.485-90.887 105.685-119.628 25.013-18.792 43.063-32.386 50.639-48.767 0.646-1.421 1.21-2.922 1.614-4.451 8.596-32.306 8.596-66.462 0-98.769-3.895-14.636-18.941-23.35-33.661-19.49-14.696 3.915-23.427 18.93-19.532 33.593 5.858 21.931 6.152 45.042 0.885 67.106-4.486 5.443-20.898 17.775-33.068 26.946-41.842 31.473-105.080 79.064-125.808 149.707-9.457 41.688-44.393 71.477-85.403 74.129-7.884 0.509-15.177 4.368-19.999 10.617-4.838 6.246-6.73 14.265-5.24 22.011 1.424 7.345 15.488 72.362 69.566 91.742 38.214 13.742 82.998-0.239 133.125-41.471 1.856-1.531 3.494-3.274 4.893-5.231 5.842-8.176 11.252-15.897 16.318-23.136 11.257-16.112 19.639-27.666 26.192-35.819-1.908 37.936-0.913 102.59 6.152 215.62 2.177 34.827 12.464 193.595 21.357 239.107l-0.349 0.066c6.207 36.622 37.691 63.551 74.899 64.063 0.027 0 0.027 0 0.027 0 18.616 0 45.051-2.293 63.991-22.011 20.953-21.797 22.11-54.68 21.167-77.508-1.746-41.557-0.778-154.48-0.242-203.758 51.717-7.733 168.362-27.597 214.004-55.321 66.303-40.308 79.655-104.517 84.196-167.925 5.13-71.501-24.125-203.085-65.577-254.749zM953.306 515.496c-22.781 0-41.262 18.432-41.262 41.18v244.79c0 41.636-33.931 75.496-75.652 75.496h-678.572c-41.708 0-75.65-33.859-75.65-75.496v-411.805c0-41.636 33.942-75.496 75.65-75.496 22.795 0 41.265-18.446 41.265-41.18s-18.47-41.18-41.265-41.18c-87.215 0-158.177 70.803-158.177 157.855v411.805c0 87.039 70.963 157.855 158.177 157.855h678.572c87.231 0 158.18-70.817 158.18-157.855v-244.79c0-22.748-18.484-41.18-41.265-41.18z" />
<glyph unicode="&#xe911;" glyph-name="online-tutoring" horiz-adv-x="877" d="M858.483 790.415l-118.596-41.061c0.38-1.765 0.603-3.59 0.603-5.469v-157.978c0-10.294-6.085-19.61-15.49-23.754l-28.149-12.394c7.827-27.039 11.976-54.978 11.929-83.288 0-36.085-0.938-68.495-1.9-101.703-0.99-34.398-2.028-69.688-2.028-111.058v-37.567c0-61.651-50.166-111.82-111.812-111.82h-9.657c-51.144 0-95.173 30.736-114.812 74.666-33.218-35.833-79.397-58.617-130.102-61.736-0.036 0-0.062 0-0.088 0-99.517 0-179.161 79.673-179.161 177.601 0 97.975 79.696 177.661 177.653 177.661 13.205 0 34.853-0.403 57.692-0.962 65.36-1.596 117.411-56.059 116.067-121.412-0.432-20.507-0.762-40.406-0.762-54.578h-0.351v-65.454c0-40.738 33.127-73.868 73.863-73.868h9.657c33.028 0 59.899 26.87 59.899 59.901v62.256h0.127c0.302 31.627 1.115 60.068 1.926 87.889 0.936 32.701 1.874 64.63 1.874 100.234 0.042 21.206-2.766 42.124-8.048 62.464-56.013-22.93-100.387-34.414-144.573-34.414-51.001 0-101.76 15.269-169.92 45.844l-48.607 21.799c-3.559 1.601-6.623 3.949-9.067 6.798-139.049-38.157-227.5-148.511-224.006-285.464 2.685-105.407 40.187-188.045 108.464-238.973 81.404-60.686 200.299-72.373 343.871-33.59l13.535-50.14c-59.886-16.148-116.234-24.185-168.261-24.185-86.512 0-161.074 22.233-220.172 66.317-81.505 60.788-126.234 157.346-129.324 279.252-4.141 161.885 104.926 296.161 269.626 338.706v122.95c0 2.441 0.445 4.754 1.074 6.995l-114.19 39.535c-10.455 3.613-17.463 13.462-17.463 24.528 0 11.063 7.008 20.912 17.463 24.526l342.108 118.446c5.526 1.9 11.461 1.9 16.985 0l342.121-118.446c10.442-3.613 17.468-13.462 17.468-24.526 0-11.066-7.026-20.915-17.468-24.528zM393.31 419.663c-22.342 0.53-43.512 0.936-56.436 0.936-69.327 0-125.74-56.415-125.74-125.745 0-69.332 56.413-125.734 125.74-125.734 52.839 3.299 100.117 37.447 120.733 87.512v43.242h0.364c0.055 14.053 0.359 32.397 0.749 51.331 0.775 36.837-28.578 67.546-65.409 68.459zM322.299 602.715l33.268-14.918c121.76-54.643 174.661-54.708 297.752-0.483l35.259 15.529v128.747l-172.215-59.623c-2.763-0.949-5.628-1.43-8.49-1.43-2.867 0-5.729 0.481-8.495 1.43l-177.078 61.31v-130.562zM507.872 905.921l-262.771-90.977 262.771-90.98 262.782 90.98-262.782 90.977z" />
<glyph unicode="&#xe912;" glyph-name="performance" horiz-adv-x="1172" d="M1088.378-64.454v572.21h82.578v-572.21h-82.578zM1083.782 827.366l-558.040-493.801-186.375 310.412-291.801-202.399-47.014 68.025 364.193 252.596 180.647-300.869 470.57 416.398h-143.219v82.726h293.614v-294.152h-82.575v161.064zM152.506-64.454h-82.575v406.744h82.575v-406.744zM407.118-64.454h-82.578v517.060h82.578v-517.060zM661.731-64.454h-82.578v296.438h82.578v-296.438zM916.343-64.454h-82.578v544.634h82.578v-544.634z" />
<glyph unicode="&#xe913;" glyph-name="plantime" horiz-adv-x="1089" d="M960.753 267.972c-73.911-68.208-169.988-105.769-270.523-105.769v74.012c81.9 0 160.164 30.6 220.4 86.155 131.829 121.643 140.208 327.934 18.705 459.879-121.527 131.915-327.698 140.302-459.53 18.683l-50.123 54.422c161.853 149.291 414.872 138.967 564.013-22.945 149.163-161.952 138.883-415.163-22.943-564.437zM485.332 529.35l-0.204-1.241c-1.694-8.709-1.527-17.504 0.485-26.129l0.468-2.637c5.018-41.259 0.781-83.929-12.267-123.391-5.565-15.426-18.572-29.985-35.118-43.65 26.799-18.878 56.872-51.386 76.346-102.664 34.259-90.178 17.538-273.881 15.517-294.554l-73.595 7.204c4.996 51.364 12.771 198.353-11.038 261.041-14.788 38.918-35.741 58.948-50.286 68.831l-22.61-164.621-35.052 34.715c-15.822 15.679-32.26 30.898-49.094 45.615l-1.197-243.702-49.306 0.241 1.206 245.325c-17.425-12.823-38.351-28.594-57.323-43.19l-37.014-28.453-8.539 151.675c-14.271-10.617-33.213-30.502-46.868-66.435-23.81-62.688-16.046-209.677-11.050-261.041l-73.595-7.204c-2.021 20.673-18.728 204.376 15.529 294.554 18.905 49.783 47.804 81.861 73.994 100.968-31.802 29.515-61.395 72.374-56.060 109.768 4.622 32.371 6.030 111.947 6.042 112.745 0 132.977 99.668 241.513 222.17 241.513 101.46-3.169 188.586-73.746 212.649-171.648 8.28-30.273 10.292-61.989 5.811-93.633zM337.435 210.75l7.909 57.581c-11.856-8.864-27.407-18.819-45.75-24.888 12.803-10.639 25.484-21.48 37.842-32.693zM189.244 213.907c17.785 13.417 30.95 23.056 41.033 30.123-15.862 5.043-30.421 12.439-43.901 20.825l2.868-50.948zM266.102 745.301c-77.321-0.010-143.242-57.8-164.71-136.938 0.295 0.359 0.623 0.689 0.909 1.059 12.151 13.195 26.791 23.635 41.936 30.866-4.826 4.661-9.558 9.423-14.094 14.404l36.448 33.22c13.727-15.066 29.002-28.377 45.632-39.819 2.036-0.763 3.994-1.645 5.863-2.654l-0.478-0.886c8.669-5.658 17.652-10.876 27.008-15.522 7.872-2.878 38.157 1.81 62.461 5.579 39.41 6.052 82.6 12.646 116.056 2.066-26.424 63.173-87.564 106.456-157.032 108.625zM436.595 536.831c2.787 20.178 2.058 40.363-1.815 60.238l-14.953-13.993c-15.502 16.613-67.383 8.6-105.24 2.77-22.101-3.42-42.36-6.54-59.837-6.54-11.159 0-21.185 1.275-29.827 4.553-11.592 5.712-22.522 11.984-32.967 18.698-9.255 0.776-33.496-4.892-52.054-24.974-11.009-14.372-27.444-25.506-46.024-31.258-0.433-20.121-2.095-82.711-6.421-112.924-2.563-18.058 28.409-62.725 64.845-85.419 10.568-6.579 20.86-13.976 31.189-21.397 24.794-17.826 48.208-34.665 74.955-38.836 27.707-4.311 54.614 17.541 69.021 29.298 3.021 2.457 5.597 4.553 7.667 6.072 2.046 1.517 7.005 4.528 13.877 8.576 59.174 34.764 75.196 52.039 78.219 60.4 10.423 31.573 13.976 66.361 10.051 100.079-3.25 14.758-3.479 29.768-0.687 44.657zM725.115 538.468l125.255-113.981-49.734-54.75-149.478 135.99v281.953h73.957v-249.213z" />
<glyph unicode="&#xe914;" glyph-name="progress" horiz-adv-x="1033" d="M650.603 508.569l265.129 267.126c71.621-71.051 113.707-166.454 117.835-267.126h-382.965zM575.835 958.954c224.212 0 286.493-133.562 286.493-133.562l-295.836-301.291 9.342 434.853zM935.314 435.757l11.021-10.931 0.072-15.652c0-260.331-212.337-472.128-473.336-472.128-260.994 0-473.333 211.797-473.333 472.128s212.34 472.128 473.333 472.128h37.369v-431.492c407.964 2.776 411.104-0.426 424.873-14.053zM473.338 375.007l-37.633-0.266v430.282c-202.34-18.844-361.23-189.183-361.23-395.848 0-219.224 178.815-397.581 398.597-397.581 208.082 0 379.429 159.866 397.090 362.928-76.853 1.845-270.727 1.36-396.824 0.486z" />
<glyph unicode="&#xe915;" glyph-name="projects" horiz-adv-x="920" d="M602.602-63.477c-174.907 0-317.212 142.237-317.212 317.076 0 8.262 0.333 16.446 0.959 24.549h-89.714c-12.512 0-22.66 10.13-22.66 22.649 0 12.517 10.148 22.649 22.66 22.649h96.59c9.368 41.362 26.811 79.697 50.626 113.229h-147.216c-12.512 0-22.66 10.141-22.66 22.649 0 12.506 10.148 22.649 22.66 22.649h186.247c57.053 54.87 134.486 88.712 219.719 88.712 174.92 0 317.225-142.248 317.225-317.085 0-174.839-142.305-317.076-317.225-317.076zM602.602 502.739c-137.424 0-249.235-111.771-249.235-249.14 0-137.372 111.812-249.131 249.235-249.131 137.435 0 249.249 111.76 249.249 249.131 0 137.369-111.814 249.14-249.249 249.14zM555.138 216.948v174.841h67.976v-135.25l134.492-76.172-33.502-59.098-168.967 95.679zM513.869 685.805c12.524 0 22.66-10.141 22.66-22.649s-10.136-22.647-22.66-22.647h-317.234c-12.512 0-22.66 10.139-22.66 22.647s10.148 22.649 22.66 22.649h317.234zM751.789 565.011c-18.765 0-33.989 15.206-33.989 33.973v218.939h-195.434c-18.763 0-33.987 15.206-33.987 33.973 0 10.021 4.423 18.935 11.329 25.154v32.881c0 2.344-1.904 4.246-4.249 4.246h-204.881c-2.347 0-4.249-1.902-4.249-4.246v-32.878c6.906-6.217 11.329-15.133 11.329-25.156 0-18.768-15.213-33.973-33.989-33.973h-195.431v-785.146h217.162c18.774 0 33.987-15.217 33.987-33.973 0-18.754-15.213-33.971-33.987-33.971h-251.151c-18.777 0-33.989 15.217-33.989 33.971v853.093c0 18.765 15.213 33.971 33.989 33.971h206.762v24.064c0 27.315 22.236 49.544 49.567 49.544h204.881c27.326 0 49.567-22.229 49.567-49.544v-24.064h206.762c18.763 0 33.987-15.206 33.987-33.971v-252.913c0-18.768-15.224-33.973-33.987-33.973z" />
<glyph unicode="&#xe916;" glyph-name="qa" horiz-adv-x="982" d="M854.388 114.070h-382.303l-196.705-168.406c-7.171-6.142-16.181-9.352-25.289-9.352-4.984 0-9.994 0.961-14.764 2.907-13.499 5.536-22.761 18.173-23.963 32.68l-11.867 142.172h-71.745c-70.494 0-127.844 57.274-127.844 127.691v377.746c0 70.416 57.35 127.701 127.844 127.701h88.978c21.47 0 38.866-17.375 38.866-38.822s-17.396-38.822-38.866-38.822h-88.978c-27.631 0-50.112-22.457-50.112-50.057v-377.746c0-27.6 22.481-50.047 50.112-50.047h107.513c20.217 0 37.055-15.468 38.724-35.586l8.528-102.109 149.907 128.346c7.046 6.039 16.015 9.349 25.289 9.349h396.675c27.631 0 50.125 22.447 50.125 50.047v377.746c0 27.6-22.494 50.057-50.125 50.057h-100.099c-21.458 0-38.866 17.375-38.866 38.822s17.408 38.822 38.866 38.822h100.099c70.491 0 127.854-57.285 127.854-127.701v-377.746c0-70.416-57.362-127.691-127.854-127.691zM443.284 407.955c13.209 0.927 26.172-3.93 35.511-13.31 8.132-9.015 12.466-20.82 12.103-32.952 0.42-12.012-3.93-23.701-12.103-32.519-9.474-9.129-22.382-13.808-35.511-12.875-23.556-2.435-44.625 14.665-47.060 38.195-0.246 2.391-0.293 4.798-0.137 7.197-0.365 12.1 3.896 23.885 11.919 32.954 9.228 9.401 22.131 14.269 35.278 13.31zM396.086 361.693c0 0 0 0 0-0.003v0 0.003zM558.441 646.322l-47.182-46.638c-22.786-28.39-34.063-64.292-31.597-100.596h-80.1c-0.471 27.506 3.474 54.909 11.686 81.17 10.339 24.649 25.336 47.081 44.169 66.064l56.712 58.285c22.771 23.727 35.752 55.161 36.348 88.024 1.518 25.843-7.010 51.272-23.807 70.986-18.32 18.098-43.545 27.457-69.253 25.69-25.75 1.249-51.052-7.075-71.020-23.362-17.989-15.766-27.859-38.827-26.835-62.712h-80.097c-0.961 43.244 17.359 84.68 50.008 113.096 35.796 29.758 81.421 45.104 127.947 43.037 46.63 2.816 92.477-12.948 127.499-43.832 31.506-31.866 48.091-75.533 45.674-120.256-2.927-56.92-28.12-110.412-70.152-148.956z" />
<glyph unicode="&#xe917;" glyph-name="resources" d="M512-63.761c-282.185 0-511.761 229.564-511.761 511.761 0 282.185 229.576 511.761 511.761 511.761 282.198 0 511.761-229.576 511.761-511.761 0-282.198-229.564-511.761-511.761-511.761zM512 887.513c-242.346 0-439.513-197.167-439.513-439.513 0-242.358 197.167-439.513 439.513-439.513 242.358 0 439.513 197.155 439.513 439.513 0 242.346-197.155 439.513-439.513 439.513zM514.012 238.285c-112.879 0-204.706 91.818-204.706 204.694s91.828 204.704 204.706 204.704c112.876 0 204.692-91.828 204.692-204.704s-91.815-204.694-204.692-204.694zM514.012 599.518c-86.315 0-156.539-70.227-156.539-156.539 0-86.3 70.225-156.527 156.539-156.527 86.3 0 156.525 70.227 156.525 156.527 0 86.312-70.225 156.539-156.525 156.539zM514.012 314.533c-70.827 0-128.448 57.621-128.448 128.446s57.621 128.446 128.448 128.446c70.825 0 128.446-57.621 128.446-128.446s-57.621-128.446-128.446-128.446zM514.012 523.258c-44.263 0-80.282-36.018-80.282-80.279 0-44.275 36.018-80.282 80.282-80.282 44.273 0 80.279 36.006 80.279 80.282 0 44.261-36.006 80.279-80.279 80.279z" />
<glyph unicode="&#xe918;" glyph-name="resourceusage" horiz-adv-x="1040" d="M940.153 352.498c52.632 236.003-96.601 470.812-332.629 523.441-236.185 52.558-470.893-96.586-523.532-332.565-25.5-114.323-4.94-231.727 57.891-330.586 62.819-98.862 160.393-167.35 274.737-192.831 72.398-16.183 148.321-13.618 219.532 7.407l20.86-70.622c-47.164-13.93-96.099-20.904-145.035-20.904-37.392 0-74.772 4.075-111.396 12.249-133.541 29.774-247.49 109.744-320.871 225.195-73.381 115.473-97.382 252.592-67.601 386.118 61.452 275.63 335.745 449.93 611.431 388.406 275.686-61.465 449.974-335.703 388.497-611.325l-71.885 16.016zM512.877 238.558c-115.077 0-208.694 93.585-208.694 208.64 0 115.052 93.617 208.653 208.694 208.653 115.075 0 208.68-93.6 208.68-208.653 0-115.055-93.605-208.64-208.68-208.64zM512.877 606.756c-87.997 0-159.592-71.58-159.592-159.557 0-87.965 71.595-159.545 159.592-159.545 87.982 0 159.577 71.58 159.577 159.545 0 87.977-71.595 159.557-159.577 159.557zM512.877 316.275c-72.207 0-130.951 58.732-130.951 130.924s58.744 130.924 130.951 130.924c72.204 0 130.948-58.732 130.948-130.924s-58.744-130.924-130.948-130.924zM512.877 529.027c-45.126 0-81.845-36.712-81.845-81.828 0-45.129 36.719-81.828 81.845-81.828 45.136 0 81.843 36.699 81.843 81.828 0 45.117-36.707 81.828-81.843 81.828zM826.936 367.432c117.896 0 213.801-95.913 213.801-213.784s-95.905-213.759-213.801-213.759-213.801 95.888-213.801 213.759 95.905 213.784 213.801 213.784zM826.936-11.016c90.823 0 164.696 73.858 164.696 164.664s-73.873 164.689-164.696 164.689c-90.823 0-164.696-73.883-164.696-164.689s73.873-164.664 164.696-164.664zM712.903 168.416c9.877 9.324 25.389 8.845 34.716-0.983l51.551-54.586 117.2 126.048c9.277 9.924 24.814 10.45 34.694 1.268 9.926-9.231 10.501-24.763 1.271-34.687l-135.038-145.247c-4.628-4.986-11.101-7.815-17.886-7.84-0.025 0-0.071 0-0.096 0-6.761 0-13.212 2.782-17.862 7.695l-69.535 73.642c-9.327 9.853-8.869 25.387 0.985 34.689z" />
<glyph unicode="&#xe919;" glyph-name="school" horiz-adv-x="1152" d="M958.925 483.841l191.391-260.185h-117.272v-288.452h-914.35v288.452h-117.31l191.393 260.185h177.788v-70.177h-142.527l-88.155-119.843h232.139v193.156l-37.071 44.156 234.115 198.149v231.514l265.876-160.443-210.252-38.395-8.33 46.024 88.68 16.194-89.383 53.935v-148.818l202.835-195.795-38.787-40.478v-9.18h179.22zM923.662 413.665h-143.956v-119.843h232.111l-88.155 119.843zM496.267 5.372h135.905v113.036h-135.905v-113.036zM590.825 655.92l-183.736-155.508h34.817v-206.59h267.912v224.132h23.933l-142.926 137.967zM188.58 223.657v-218.285h261.095v159.812h229.087v-159.812h284.393v218.285h-774.576zM826.29 96.962h42.706v-42.878h-42.706v42.878zM826.29 167.127h42.706v-42.878h-42.706v42.878zM733.107 96.962h42.708v-42.878h-42.708v42.878zM733.107 167.127h42.708v-42.878h-42.708v42.878zM337.083 96.962h42.708v-42.878h-42.708v42.878zM337.083 167.127h42.708v-42.878h-42.708v42.878zM243.901 96.962h42.708v-42.878h-42.708v42.878zM243.901 167.127h42.708v-42.878h-42.708v42.878zM575.857 311.363c-64.224 0-116.478 52.464-116.478 116.931 0 64.479 52.254 116.943 116.478 116.943 64.234 0 116.49-52.464 116.49-116.943 0-64.467-52.256-116.931-116.49-116.931zM575.857 498.46c-38.537 0-69.887-31.473-69.887-70.165 0-38.68 31.35-70.156 69.887-70.156 38.549 0 69.899 31.476 69.899 70.156 0 38.691-31.35 70.165-69.899 70.165z" />
<glyph unicode="&#xe91a;" glyph-name="slm" horiz-adv-x="630" d="M567.187 542.124c-2.973-27.929-8.658-56.732-15.515-75.777-7.045-19.541-26.165-38.714-50.907-57.296 29.391-18.007 70.558-54.272 97.075-124.282 40.792-107.748 18.858-338.917 17.912-348.694l-65.755 6.43c6.063 62.422 15.396 241.336-13.915 318.694-22.987 60.704-58.306 85.809-76.060 95.073l-27.023-197.276-31.157 29.939c-24.724 23.765-51.858 49.137-71.761 67.008l-1.523-310.048-44.039 0.217 1.523 309.659c-22.556-16.43-52.901-39.307-80.804-60.835l-33.060-25.513-10.403 185.289c-18.683-10.462-51.376-35.989-73.158-93.512-29.353-77.466-19.998-256.314-13.924-318.671l-65.735-6.474c-0.957 9.799-22.901 240.969 17.912 348.716 25.392 67.053 64.228 103.139 93.289 121.892-40.907 34.733-81.233 89.774-74.902 134.216 0.307 2.173 0.603 4.543 0.889 7.034-30.392 14.412-48.936 46.973-44.477 81.755 3.218 37.293 34.439 59.641 51.738 69.274 10.19 145.633 121.85 261.007 257.733 261.007 114.31 0 213.654-80.271 247.2-199.73 5.031-18.462 8.082-37.149 9.198-55.938 25.796-8.316 61.677-30.52 60.795-71.193 2.796-39.645-22.558-77.447-61.144-90.961zM45.437 624.927c-1.081-8.495 0.778-16.464 4.624-23.117 0.665 13.59 1.176 27.116 1.556 38.902-3.289-4.648-5.672-9.925-6.18-15.785zM401.109 250.622l13.988 102.1c-16.125-13.201-44.077-35.589-79.252-43.613 12.348-9.655 31.986-27.056 65.264-58.487zM211.461 255.35c37.421 28.478 59.776 44.614 73.722 53.774-29.662 6.249-55.050 20.272-78.775 36.318l5.053-90.092zM311.138 915.744c-103.862 0-190.696-82.614-210.347-191.918 7.376 4.142 13.933 9.75 19.165 16.554 16.435 17.887 36.884 31.431 57.455 39.519-8.526 7.774-16.682 15.949-24.481 24.534l32.556 29.786c17.034-18.774 36.009-35.332 56.699-49.517 2.42-0.875 4.757-1.881 6.961-3.075l-0.581-1.085c10.469-6.822 21.307-13.121 32.589-18.738 11.901-4.436 47.693 1.132 79.272 6.001 52.483 8.117 110.772 17.058 150.295-3.311-32.043 91.067-110.4 151.25-199.582 151.25zM521.804 656.57c3.709 26.776 2.684 53.549-2.989 79.767l-19.008-17.843c-21.287 22.859-83.068 13.287-132.673 5.623-26.212-4.058-50.189-7.77-70.541-7.77-12.494 0-23.612 1.401-33.029 4.985-13.853 6.859-26.955 14.441-39.481 22.607-13.588 2.14-46.272-5.774-70.539-32.081-13.559-17.746-34.075-30.907-56.973-36.811-0.265-14.127-2.098-100.919-7.73-140.427-3.84-27.003 37.103-82.55 81.12-110.071 12.75-7.964 25.082-16.857 37.006-25.449 30.427-21.95 59.157-42.671 92.926-47.959 36.535-5.829 70.421 21.952 88.592 36.844 3.484 2.849 6.452 5.268 8.84 7.036 2.363 1.748 8.104 5.223 15.995 9.885 21.806 12.843 88.077 51.911 96.938 76.485 13.76 38.171 18.062 107.102 13.568 119.804l-0.904 2.989c-4.019 17.321-4.386 34.945-1.119 52.386zM584.334 632.051c0.203 11.548-9.189 19.554-18.208 24.596-0.261-2.257-0.462-4.512-0.778-6.768l-0.192-1.123c-2.151-11.128-2-22.383 0.407-33.456 1.806-5.535 2.924-12.958 3.468-21.592 10.356 9.536 16.324 23.482 15.303 38.343z" />
<glyph unicode="&#xe91b;" glyph-name="social" horiz-adv-x="1075" d="M1072.483-40.836v-22.926h-396.854l-1.173 22.86c-1.667 32.573 8.59 60.088 30.486 81.749 47.981 47.499 139.464 49.788 168.991 49.21 29.094 0.619 121.172-1.47 169.374-49.21 15.967-15.794 25.667-34.734 29.147-56.443h0.029v-0.147c1.272-8.021 1.761-16.391 1.311-25.159l-1.311 0.065zM1009.534 6.581c-30.183 29.894-95.189 35.705-129.294 35.459l-0.024-0.393c-1.86 0.118-3.983 0.21-6.277 0.277-2.149-0.070-4.125-0.164-5.881-0.277l-0.024 0.378c-34.202 0.2-99.357-5.73-129.366-35.491-6.501-6.445-11.030-13.782-13.637-22.13h298.097c-2.617 8.363-7.086 15.733-13.594 22.176zM883.221 95.787c-63.77 0-115.659 64.136-115.659 142.991 0 78.858 51.889 142.994 115.659 142.994 63.767 0 115.659-64.136 115.659-142.994 0-78.855-51.892-142.991-115.659-142.991zM883.221 333.606c-36.64 0-67.594-43.415-67.594-94.827s30.954-94.825 67.594-94.825c36.635 0 67.594 43.413 67.594 94.825s-30.959 94.827-67.594 94.827zM869.702 626.118c0 46.203-37.505 83.782-83.623 83.782h-84.609v72.249h84.609c85.876 0 155.723-69.989 155.723-156.031v-190.16h-72.099v190.16zM546.756 673.776c-63.78 0-115.659 64.148-115.659 142.994s51.879 142.991 115.659 142.991c63.767 0 115.659-64.146 115.659-142.991s-51.892-142.994-115.659-142.994zM546.756 911.595c-36.64 0-67.594-43.425-67.594-94.825s30.954-94.827 67.594-94.827c36.635 0 67.594 43.427 67.594 94.827s-30.959 94.825-67.594 94.825zM223.809 626.118v-205.212h-72.099v205.212c0 86.043 69.846 156.031 155.713 156.031h81.616v-72.249h-81.616c-46.109 0-83.614-37.58-83.614-83.782zM325.951 238.779c0-78.855-51.879-142.991-115.659-142.991s-115.661 64.136-115.661 142.991c0 78.858 51.882 142.994 115.661 142.994s115.659-64.136 115.659-142.994zM142.698 238.779c0-51.412 30.956-94.825 67.594-94.825 36.635 0 67.594 43.413 67.594 94.825s-30.959 94.827-67.594 94.827c-36.638 0-67.594-43.415-67.594-94.827zM200.994 90.058c29.082 0.619 121.181-1.467 169.386-49.21 15.965-15.794 25.658-34.734 29.135-56.443h0.039v-0.193c1.267-8.006 1.749-16.362 1.301-25.113l-1.301 0.065v-22.926h-396.854l-1.161 22.86c-1.667 32.573 8.578 60.088 30.477 81.749 47.969 47.502 139.44 49.788 168.979 49.21zM52.104-15.595h298.097c-2.619 8.363-7.088 15.733-13.596 22.176-30.161 29.874-95.186 35.645-129.294 35.44l-0.024-0.373c-1.771 0.113-3.759 0.205-5.925 0.27-2.277-0.065-4.388-0.154-6.233-0.27l-0.024 0.378c-34.199 0.2-99.355-5.73-129.366-35.491-6.489-6.445-11.018-13.782-13.635-22.13zM339.164 514.228l-1.161 22.848c-1.667 32.585 8.58 60.1 30.477 81.763 48.032 47.559 139.695 49.79 169.1 49.205 29.219 0.602 121.124-1.549 169.264-49.205 15.965-15.794 25.665-34.732 29.144-56.445h0.031v-0.152c1.272-8.021 1.761-16.394 1.311-25.166l-1.311 0.067v-22.916h-396.854zM673.070 584.573c-30.159 29.857-95.193 35.72-129.291 35.467l-0.027-0.4c-1.956 0.118-4.226 0.202-6.662 0.265-1.995-0.067-3.85-0.157-5.496-0.265l-0.022 0.352c-34.197 0.154-99.359-5.693-129.369-35.454-6.489-6.443-11.018-13.782-13.637-22.142h298.097c-2.617 8.363-7.088 15.736-13.594 22.179zM656.409 23.539h-222.309v72.249h222.309v-72.249z" />
<glyph unicode="&#xe91c;" glyph-name="studyplan" horiz-adv-x="1105" d="M1076.245 157.058c-25.941-24.443-70.301-38.476-118.265-38.476-10.302 0-20.766 0.65-31.277 1.977-49.257 6.249-88.124 26.672-106.615 55.994-28.239 44.775-46.361 110.573-26.36 149.747 9.073 17.751 25.036 28.205 44.968 29.46 68.125 7.692 135.923 25.14 200.311 51.767 5.915 2.462 12.576 2.417 18.492-0.138 5.87-2.534 10.488-7.368 12.786-13.362 11.345-29.786 65.039-181.274 5.961-236.968zM1033.833 354.342c-61.464-23.166-125.597-38.617-191.007-45.98-4.291-0.281-5.382-1-6.775-3.744-8.561-16.751-0.024-64.219 24.224-102.648 10.721-17.029 37.798-29.81 72.416-34.202 44.411-5.692 90.050 4.206 110.978 23.954 23.414 22.049 9.468 102.743-9.835 162.618zM985.71 394.469c-19.675 0-35.64 15.984-35.64 35.688v154.729c-203.726-58.937-298.379-83.027-344.917-91.265 0.148-1.326 0.4-2.62 0.4-3.984v-472.609l373.798 67.586c19.213 3.298 37.914-9.409 41.417-28.786 3.482-19.401-9.376-37.967-28.748-41.474l-427.663-77.324c-2.1-0.371-4.21-0.557-6.335-0.557-2.436 0-4.875 0.255-7.273 0.743l-427.677 89.219c-19.27 4.020-31.625 22.933-27.612 42.217 4.015 19.308 22.878 31.739 42.16 27.672l396.64-82.744v476.058c0 3.213 0.562 6.268 1.355 9.228-63.669 15.605-236.975 52.81-368.621 80.467 0.441-31.925 0.314-80.403 0.129-155.241-0.048-19.677-15.998-35.595-35.64-35.595-0.036 0-0.057 0-0.093 0-19.675 0.048-35.595 16.079-35.547 35.78 0.198 78.219 0.441 174.861-0.476 192.312-0.66 3.391-0.845 6.935-0.474 10.538 2.122 20.632 22.633 35.49 42.727 31.275 42.084-8.78 80.139-16.77 114.695-24.074 4.213 180.026 151.671 325.201 332.448 325.201 175.656 0 319.85-137.071 331.747-309.993 19.839 5.689 39.676 11.419 59.242 17.122 10.745 3.151 22.371 1.024 31.349-5.725 8.98-6.739 14.248-17.31 14.248-28.543v-202.233c0-19.704-15.965-35.688-35.64-35.688zM587.609 557.725c-2.031 0.905-3.977 1.617-5.63 2.022 2.565-0.831 4.315-1.479 5.63-2.022zM584.764 888.153c-144.124 0-261.37-117.405-261.37-261.713v-5.949c0-0.426-0.11-0.824-0.124-1.248 176.173-37.683 234.575-52.16 255.414-58.478 26.56 3.122 140.29 33.054 267.359 68.763-1.667 142.884-118.201 258.624-261.28 258.624zM679.793 716.652c25.15 0 45.539-20.418 45.539-45.601 0-25.186-20.39-45.604-45.539-45.604-25.152 0-45.539 20.418-45.539 45.604 0 25.183 20.387 45.601 45.539 45.601zM489.715 625.447c-25.152 0-45.539 20.418-45.539 45.604 0 25.183 20.387 45.601 45.539 45.601 25.15 0 45.539-20.418 45.539-45.601 0-25.186-20.39-45.604-45.539-45.604zM334.732 326.299c19.987-39.174 1.867-104.972-26.36-149.747-24.597-38.988-81.037-51.51-112.488-55.508-12.195-1.555-25.188-2.391-38.424-2.391-48.285 0-99.959 11.035-129.010 38.405-59.085 55.694-5.394 207.181 5.975 236.968 4.584 12.012 17.856 18.263 29.991 13.986 73.378-25.51 149.647-43.144 226.678-52.367 18.599-1.141 34.561-11.595 43.637-29.346zM286.804 308.269c-73.809 8.806-145.877 24.65-215.542 47.259-19.468-60.016-33.737-141.662-10.233-163.804 21.23-20.028 76.593-30.227 128.881-23.466 38.226 4.856 68.227 17.775 78.274 33.713 24.247 38.429 32.787 85.897 24.235 102.648-1.405 2.743-2.505 3.463-5.615 3.651z" />
<glyph unicode="&#xe91d;" glyph-name="external-rec" horiz-adv-x="1096" d="M1071.411-6.654c-18.455-21.29-44.069-34.112-72.153-36.101l-1.449-0.107-400.719 0.107c-24.020 1.72-46.926 11.746-64.522 28.223-42.511 39.838-44.777 106.904-5.054 149.51 25.479 27.579 58.71 46.799 94.842 55.481 0.294 8.654 1.18 17.338 2.656 25.965 12.66 87.496 88.887 153.352 177.83 153.352 1.018 0 2.039-0.027 3.057-0.027l3.594-0.214c84.837-8.923 151.088-76.419 161.013-159.051 45.759-16.801 84.92-48.92 110.292-91.338 8.983-13.601 14.885-31.102 16.148-49.112 1.984-28.168-7.082-55.374-25.534-76.688zM1011.060 75.223c-20.143 33.601-52.221 56.126-88.915 63.304l-34.896 6.827 2.173 41.397c1.638 49.944-36.29 94.189-86.714 100.45-48.144-0.080-89.37-35.75-96.321-83.649-2.437-14.381-2.25-27.875 0.379-41.1l10.539-52.874-53.67 3.575c-27.332-0.189-55.763-12.742-75.799-34.408-8.822-9.488-8.341-24.217 0.993-32.954 3.592-3.361 8.179-5.485 13.036-6.075h392.674c12.095 1.424 21.081 12.177 20.222 24.489-0.296 3.924-1.556 7.741-3.701 11.019zM163.995 795.764l228.874 6.047v-379.174l-109.030 109.296-119.844-102.522v366.352zM218.927 548.786l67.861 58.063 51.148-51.288v189.722l-119.009-3.142v-193.354zM779.695 686.374h-357.070v82.577h290.959c-12.419 20.346-19.067 41.495-19.72 63.331-0.516 17.333 2.93 33.009 8.149 46.772h-565.482c-30.298 0-54.932-24.689-54.932-55.050 0-30.364 24.634-55.053 54.932-55.053v-82.577c-17.144 0-33.497 3.306-48.643 9.085v-674.186l390.139-4.327-0.911-82.577-471.623 5.244v843.224c-4.077 13.003-6.292 26.829-6.292 41.166 0 75.881 61.611 137.627 137.33 137.627h675.187v-82.577h-48.152c-7.768-11.327-15.437-27.258-14.77-45.507 0.766-21.383 12.808-43.035 35.624-64.596h77.67v-332.603h-82.395v250.026z" />
<glyph unicode="&#xe91e;" glyph-name="system-rec" horiz-adv-x="1256" d="M1213.798 148.966h-542.312v-125.39h215.478v-86.813h-518.081v86.813h215.463v125.39h-542.298c-24.072 0-43.576 19.443-43.576 43.408v723.456c0 23.979 19.504 43.408 43.576 43.408h1171.751c24.057 0 43.579-19.429 43.579-43.408v-723.456c0-23.965-19.522-43.408-43.579-43.408zM1170.223 872.422h-1084.596v-636.64h1084.596v636.64zM541.943 430.819l296.932 328.365 64.744-58.101-329.258-364.131c-8.271-9.129-20.032-14.357-32.36-14.357-0.014 0-0.029 0-0.029 0-12.326 0-24.086 5.199-32.343 14.328l-157.344 173.629 64.686 58.159 124.972-137.892z" />
<glyph unicode="&#xe91f;" glyph-name="tlm" horiz-adv-x="654" d="M634.706 458.584c-36.273-42.885-103.459-37.263-106.323-37.034l4.473 49.010c12.163-0.985 47.957 0.528 64.278 19.821 23.343 27.546-12.067 74.994-19.421 84.234l-1.66 2.365c-20.168 32.603-32.164 70.097-34.711 108.406 0.769 124.702-98.606 225.396-221.564 226.248-122.644-0.852-222.006-101.546-221.166-224.448-0.287-28.698-5.539-56.423-15.636-82.793l-1.466-3.146c-2.763-4.974-6.165-10.284-9.82-15.965-12.919-20.074-26.298-40.831-22.643-67.896 3.557-26.441 21.754-63.993 46.058-81.086 11.91-8.398 23.977-11.139 37.007-8.363l10.264-48.109c-6.637-1.42-13.271-2.139-19.834-2.139-19.507 0-38.496 6.224-55.78 18.38-38.751 27.256-61.635 78.588-66.516 114.76-6.057 45.022 15.673 78.755 30.049 101.089 2.667 4.141 5.192 8.046 7.332 11.733 7.585 20.386 11.539 41.78 11.755 63.61-1.034 149.63 120.264 272.535 270.395 273.578 150.433-1.044 271.756-123.948 270.746-273.989 1.923-28.108 11.178-57.312 26.681-82.827 42.406-54.024 48.966-108.307 17.5-145.44zM176.605 393.235c3.736 2.233 7.862 3.355 11.979 3.468-33.161 25.004-71.418 71.472-65.739 111.301 3.977 27.811 5.205 96.429 5.214 97.112 1.648 43.15 36.359 77.075 79.040 77.745 17.608 0.612 56.585 12.205 94.28 23.415 84.819 25.24 138.474 39.51 167.825 24.829l18.22-9.105-5.553-19.605c-6.779-24.014-10.53-52.641-7.86-60.039 3.004-4.421 8.918-10.608 14.663-16.591 11.058-11.532 22.499-23.474 26.175-39.041l-8.678-2.044 9.807-1.921c-1.368-7.017-1.248-14.152 0.386-21.214l0.481-2.596c4.399-36.194 0.671-73.589-10.77-108.138-10.719-29.683-51.032-55.247-88.005-76.942-3.822-2.238-6.73-3.918-8.221-4.925-1.009-0.747-2.596-2.068-4.47-3.606-14.975-12.229-44.449-36.278-82.26-36.278-4.473 0-9.076 0.336-13.774 1.056-33.954 5.31-60.854 24.626-84.581 41.637-2.272 1.633-4.551 3.235-6.826 4.853l8.498-9.827 72.717-96.078 141.584 115.899c6.084 4.998 14.16 6.752 21.781 4.782 3.122-0.793 76.994-20.976 115.813-123.062 36.373-95.693 16.709-302.217 15.842-310.961-1.25-12.711-11.947-22.201-24.468-22.201-0.796 0-1.614 0.049-2.429 0.12-13.509 1.321-23.412 13.359-22.091 26.885 0.192 2.019 19.421 203.737-12.861 288.669-21.514 56.529-54.665 79.835-71.659 88.486l-142.824-116.916c-1.631-3.082-3.878-5.892-6.84-8.137-2.407-1.803-5.060-3.021-7.786-3.837l-27.212-22.277 145.334-2.053v56.661c0 13.597 11.011 24.603 24.616 24.603s24.616-11.006 24.616-24.603v-254.865c0-13.597-11.011-24.601-24.616-24.601s-24.616 11.004-24.616 24.601v148.991l-205.768 2.906v-155.309c0-13.597-11.021-24.601-24.616-24.601s-24.616 11.004-24.616 24.601v254.865c0 13.597 11.021 24.601 24.616 24.601s24.616-11.004 24.616-24.601v-37.069l45.466 37.221-76.006 100.418c-25.878-18.308-57.31-46.129-64.664-68.689-14.076-43.15-23.258-218.992-14.447-276.727 2.044-13.43-7.189-25.972-20.627-28.013-1.26-0.194-2.51-0.29-3.748-0.29-11.947 0-22.44 8.722-24.304 20.902-9.159 59.992-1.093 246.025 16.321 299.383 17.729 54.323 94.364 101.533 103.041 106.748zM226.244 430.377c9.22-5.73 18.222-12.18 27.249-18.645 21.13-15.184 41.094-29.501 63.448-32.986 22.825-3.625 45.194 14.825 57.285 24.699 2.621 2.137 4.856 3.964 6.659 5.286 1.874 1.368 6.226 4.035 12.283 7.567 53.125 31.174 64.398 45.086 66.393 50.597 8.823 26.706 11.853 56.256 8.535 84.932-1.827 8.457-2.574 16.987-2.211 25.49-2.503 3.726-8.535 10.006-12.743 14.405-6.995 7.268-14.879 15.518-21.057 24.987-10.937 16.83-9.036 45.744-4.325 70.718-29.543-3.674-81.25-19.053-112.333-28.302-44.386-13.214-82.717-24.613-107.092-25.456-16.994-0.275-30.432-13.406-31.058-29.911-0.047-2.427-1.285-71.885-5.696-102.71-2.044-14.366 24.603-51.943 54.662-70.671z" />
<glyph unicode="&#xe920;" glyph-name="teacher-rec" horiz-adv-x="1133" d="M946.091 500.217l-23.682 12.384 186.946 357.129 23.685-12.384-186.948-357.129zM637.266 269.408l-135.091 135.064 43.508-345.31h-401.645l51.81 388.464-102.862-58.062v-287.011h-80.121v333.777l236.514 133.492h52.253v31.292c-81.087 18.311-141.879 90.79-141.879 177.313 0 100.297 81.621 181.902 181.94 181.902s181.94-81.605 181.94-181.902c0-86.523-60.792-159.002-141.879-177.313v-31.292h70.953v-2.618l197.654-197.614 243.751 141.42 40.216-69.282-297.060-172.32zM443.513 778.427c0 56.127-45.68 101.797-101.821 101.797s-101.818-45.67-101.818-101.797c0-56.13 45.678-101.8 101.818-101.8s101.821 45.67 101.821 101.8zM410.678 489.719h-128.39l-46.732-350.452h219.287l-44.165 350.452zM1121.197-64.33h-1121.685v80.103h1121.685v-80.103z" />
<glyph unicode="&#xe921;" glyph-name="home-work" horiz-adv-x="1072" d="M1070.944 73.599l0.052-138.898h-579.432l3.586 44.28c2.379 29.369 3.106 59.192 2.166 88.694-0.027 112.864 128.035 143.113 182.721 156.052l5.103 1.199c2.073 2.58 3.945 12.441 4.406 24.434-40.842 32.924-67.546 86.15-67.546 146.29 0 99.781 73.238 180.95 163.272 180.95 90.032 0 163.27-81.169 163.27-180.95 0-55.661-22.819-105.483-58.59-138.707 0.891-15.032 3.509-29.903 7.888-44.365 0.294-0.43 0.425-0.561 0.425-0.589 1.33-1.147 10.71-7.016 65.159-8.724 30.559-0.959 56.71-12.402 75.657-33.101 34.017-37.185 32.18-90.59 31.864-96.566zM785.271 494.655c-45.016 0-81.635-44.414-81.635-99.004 0-54.604 36.619-99.021 81.635-99.021s81.635 44.417 81.635 99.021c0 54.59-36.619 99.004-81.635 99.004zM978.836 114.866c-2.659 2.853-7.095 6.16-17.963 6.509-73.426 2.294-114.799 11.683-137.282 56.737l-2.31 5.708c-3.577 11.051-6.218 22.315-8.359 33.663-9.008-1.714-18.209-2.798-27.649-2.798-6.117 0-12.135 0.444-18.078 1.174-8.059-34.194-27.876-62.206-63.159-70.638l-5.288-1.253c-59.26-14.005-119.823-33.878-119.823-74.984 0.559-17.045 0.586-34.624 0.054-52.337h410.381v59.165c0.346 9.978-1.861 29.745-10.522 39.055zM163.943 796.7l226.756 6.002v-376.283l-108.023 108.461-118.733-101.74v363.559zM218.367 551.608l67.233 57.62 50.675-50.898v188.276l-117.908-3.122v-191.875zM773.951 688.143h-353.766v81.948h288.269c-12.307 20.189-18.892 41.177-19.541 62.849-0.51 17.2 2.904 32.755 8.073 46.414h-560.254c-30.017 0-54.424-24.5-54.424-54.631 0-30.129 24.407-54.631 54.424-54.631v-81.948c-16.985 0-33.189 3.283-48.193 9.016v-669.042l386.533-4.294-0.902-81.948-467.266 5.201v836.794c-4.041 12.906-6.231 26.628-6.231 40.853 0 75.306 61.039 136.577 136.059 136.577h668.947v-81.945h-47.708c-7.694-11.239-15.293-27.050-14.634-45.16 0.757-21.217 12.691-42.706 35.297-64.102h27.045v-15.939h49.907v-150.235h-81.635v84.226z" />
<glyph unicode="&#xe922;" glyph-name="time" d="M512.001-65.352c-283.068 0-513.352 230.298-513.352 513.352 0 283.065 230.284 513.352 513.352 513.352 283.056 0 513.349-230.286 513.349-513.352 0-283.054-230.293-513.352-513.349-513.352zM512.001 892.905c-245.323 0-444.905-199.582-444.905-444.905 0-245.314 199.582-444.903 444.905-444.903 245.312 0 444.903 199.589 444.903 444.903 0 245.323-199.591 444.905-444.903 444.905zM454.962 399.54v282.321h68.446v-242.44l239.32-135.623-33.735-59.533-274.032 155.275z" />
<glyph unicode="&#xe923;" glyph-name="time-report" horiz-adv-x="1203" d="M762.021 75.208v83.097c198.367 0 359.765 161.544 359.765 360.094 0 198.563-161.398 360.094-359.765 360.094-198.37 0-359.754-161.531-359.754-360.094h-83.023c0 244.374 198.624 443.191 442.777 443.191 244.15 0 442.788-198.817 442.788-443.191 0-244.371-198.638-443.191-442.788-443.191zM707.835 403.571v-391.255c0-42.956-34.917-77.906-77.834-77.906h-553.487c-42.917 0-77.834 34.95-77.834 77.906v391.255c0 42.956 34.917 77.889 77.834 77.889h553.487c42.917 0 77.834-34.934 77.834-77.889zM624.812 398.35h-543.11v-380.84h38.054v173.12h55.348v-173.12h70.334v304.693h55.348v-304.693h70.348v173.12h55.348v-173.12h70.334v304.693h55.348v-304.693h72.646v380.84zM801.235 492.931l138.614-126.122-55.834-61.512-165.802 150.872v312.687h83.023v-275.925z" />
<glyph unicode="&#xe924;" glyph-name="wiki" horiz-adv-x="1110" d="M900.033 149.406c-27.21 22.463-58.379 41.583-92.035 56.016 8.626 27.626 18.923 59.768 26.633 92.903l-53.315 16.27c-7.901-34.657-17.472-64.456-29.266-93.106-48.923 19.36-107.015 29.22-167.102 31.203l-1.094 79.016h-83.187v-78.773c-5.731-0.166 16.312-0.23 10.534-0.516-58.826-2.834-114.235-12.576-166.986-28.455-5.515 26.089-15.099 55.931-22.236 86.712l-54.924-8.050c8.543-37.417 18.83-69.545 31.477-100.457-35.401-9.582-64.59-27.444-90.369-49.218-38.776 46.121-69.304 100.607-87.735 160.398l-53.977-12.674c65.059-212.674 259.615-364.675 489.673-364.675s424.614 152.002 488.718 361.055l-52.174 19.489c-19.838-64.66-51.614-120.511-93.069-167.641zM861.037 109.705c-53.012-48.003-117.811-84.003-189.495-103.142 43.372 40.835 81.704 90.502 109.788 146.219 31.245-9.75 57.087-25.156 80.406-43.61zM730.037 174.284c-34.268-66.78-83.954-121.365-144.56-160.486l-1.622 183.439c52.817-1.989 102.876-10.24 150.578-24.042zM514.031 197.017c4.822 0.25-18.153 0.308-13.363 0.465v-190.083c-64.19 36.669-89.905 94.234-128.345 167.194 41.798 11.945 90.275 19.975 140.229 22.367zM429.738 10.011c-71.102 21.31-132.341 56.993-183.012 103.924 21.070 16.923 45.007 31.325 70.934 41.845 30.412-56.384 67.358-104.882 111.698-145.426zM204.792 736.666c25.724-22.84 55.609-41.74 88.255-55.342-8.085-25.189-17.642-54.745-24.913-85.188l53.269-16.328c7.459 31.876 16.314 59.161 27.136 85.428 47.104-18.657 103.169-28.619 161.114-31.412 7.36-0.353-14.72-0.326-8.986-0.501v-75.152h83.187v75.639c62.099 1.983 121.071 12.155 176.898 29.473 4.479-23.897 13.104-51.362 19.629-79.631l54.851 8.342c-8.137 34.715-17.744 64.392-29.464 92.98 38.536 11.903 70.465 31.966 98.773 56.145 38.533-46.049 68.914-100.375 87.281-159.969l53.977 12.699c-64.343 206.431-249.896 355.254-471.44 363.913-2.146 0.717-3.193 1.557-4.37 2.237l-1.165-2.017c-4.246 0.108-8.437 0.527-12.7 0.527-7.45 0-14.797-0.596-22.193-0.924l-1.393 2.415c-1.408-0.812-2.662-1.816-4.060-2.64-218.171-13.108-398.72-160.383-461.046-359.868l52.148-19.539c18.674 61.112 47.855 114.054 85.79 159.425zM242.54 776.606c51.99 49.442 115.793 86.964 186.713 107.883-42.9-42.79-81.366-93.939-110.29-150.759-30.28 8.564-55.088 24.076-76.708 43.122zM514.058 689.154c-52.165 2.482-101.331 10.729-148.317 24.143 42.415 71.185 68.291 132.236 134.926 177.93v-202.533c-4.781 0.156 18.202 0.212 13.39 0.461zM583.855 688.954v195.965c62.433-44.819 112.772-102.546 147.826-169.535-42.912-15.867-93.961-24.417-146.69-26.397zM665.988 889.367c77.905-20.296 145.199-58.168 200.013-109.256-23.63-19.055-50.396-35.469-79.306-47.833-33.246 60.52-72.929 112.759-120.357 156.768zM585.588 897.853s159.442-88.387 225.299-332.749M505.866 897.853s-159.442-88.387-225.299-332.749M585.588-17.207s159.442 88.387 225.299 332.749M505.866-17.207s-159.442 88.387-225.299 332.749M53.454 421.259l-18.278-19.714v-48.742h-35.176v170.667h35.176v-77.352l15.462 21.203 43.489 56.149h43.259l-60.604-75.835 62.35-94.831h-41.836zM231.026 352.803h-33.876v130.576l-40.429-12.538v27.539l70.677 25.319h3.629zM403.453 352.803h-116.982v23.207l55.214 58.843c4.13 4.549 7.636 8.665 10.48 12.429 2.338 2.991 4.624 6.356 6.684 9.87 1.72 2.941 2.996 5.836 3.913 8.887 0.759 2.612 1.163 5.295 1.181 8.068 0.028 0.462 0.044 0.989 0.044 1.521 0 6.221-2.182 11.932-5.822 16.41-3.751 3.99-9.122 6.505-15.079 6.505-0.455 0-0.906-0.015-1.354-0.044-0.069 0.006-0.223 0.007-0.377 0.007-3.681 0-7.175-0.799-10.319-2.234-2.926-1.373-5.513-3.397-7.559-5.883-2.096-2.607-3.718-5.635-4.72-8.934-1.090-3.508-1.69-7.325-1.69-11.281 0-0.137 0.001-0.274 0.002-0.41l-33.997 0.021c-0.001 0.1-0.001 0.219-0.001 0.338 0 7.686 1.507 15.021 4.242 21.723 2.673 6.573 6.684 12.503 11.688 17.427 5.227 5.085 11.441 9.173 18.325 11.949 7.404 2.959 15.547 4.597 24.073 4.597 0.348 0 0.696-0.003 1.043-0.008 0.327 0.007 0.774 0.011 1.222 0.011 8.052 0 15.817-1.226 23.119-3.503 6.172-1.927 11.984-5.197 16.925-9.451 4.553-4.049 8.187-9.153 10.511-14.924 2.396-6.048 3.73-12.746 3.73-19.755 0-0.276-0.002-0.551-0.006-0.825 0.001-0.004 0.001-0.059 0.001-0.113 0-5.861-0.987-11.491-2.803-16.734-2.020-5.743-4.595-11.011-7.702-15.908-3.639-5.759-7.561-11.020-11.848-15.954q-6.831-8.006-15.395-16.766l-30.112-31.791h73.371zM551.265 412.215h-65.992v27.323h65.992zM773.409 402.033l22.99 121.437h35.040l-37.857-170.667h-35.393l-27.785 114.166-27.785-114.166h-35.39l-37.884 170.667h35.068l23.071-121.22 28.135 121.22h29.787zM887.819 352.803h-35.177v170.667h35.176zM973.849 421.259l-18.306-19.714v-48.742h-35.149v170.667h35.15v-77.352l15.489 21.203 43.489 56.149h43.245l-60.603-75.835 62.363-94.831h-41.865zM1110.166 352.803h-35.176v170.667h35.176z" />
</font>
</defs>
</svg>
